<mxfile host="app.diagrams.net" modified="2020-06-03T09:45:45.131Z" agent="5.0 (Macintosh; Intel Mac OS X 10_15_3) AppleWebKit/537.36 (KHTML, like Gecko) Chrome/83.0.4103.61 Safari/537.36" etag="kzL2nnyG-Xvr7H6dnhKu" version="13.1.14" type="github">
  <diagram id="kCpKwJVJHfybIE9ixX9i" name="Page-1">
    <mxGraphModel dx="2013" dy="686" grid="1" gridSize="10" guides="1" tooltips="1" connect="1" arrows="1" fold="1" page="1" pageScale="1" pageWidth="827" pageHeight="1169" math="0" shadow="0">
      <root>
        <mxCell id="0" />
        <mxCell id="1" parent="0" />
        <mxCell id="SZwGPWXOhueTDgwkdfKL-1" value="" style="rounded=0;whiteSpace=wrap;html=1;fillColor=none;labelPosition=center;verticalLabelPosition=middle;align=center;verticalAlign=middle;dashed=1;" parent="1" vertex="1">
          <mxGeometry x="321" y="560" width="110" height="160" as="geometry" />
        </mxCell>
        <mxCell id="SZwGPWXOhueTDgwkdfKL-69" value="" style="rounded=0;whiteSpace=wrap;html=1;dashed=1;" parent="1" vertex="1">
          <mxGeometry x="610" y="559.5" width="200" height="160.5" as="geometry" />
        </mxCell>
        <mxCell id="SZwGPWXOhueTDgwkdfKL-43" value="" style="rounded=0;whiteSpace=wrap;html=1;dashed=1;" parent="1" vertex="1">
          <mxGeometry x="-43" y="560" width="192" height="160" as="geometry" />
        </mxCell>
        <mxCell id="SZwGPWXOhueTDgwkdfKL-9" value="计算模块" style="rounded=0;whiteSpace=wrap;html=1;" parent="1" vertex="1">
          <mxGeometry x="75.5" y="574" width="55.5" height="35" as="geometry" />
        </mxCell>
        <mxCell id="SZwGPWXOhueTDgwkdfKL-42" value="" style="shape=datastore;whiteSpace=wrap;html=1;" parent="1" vertex="1">
          <mxGeometry x="-32" y="654.5" width="40" height="49.5" as="geometry" />
        </mxCell>
        <mxCell id="SZwGPWXOhueTDgwkdfKL-44" value="" style="endArrow=classic;html=1;entryX=0;entryY=0.5;entryDx=0;entryDy=0;" parent="1" source="SZwGPWXOhueTDgwkdfKL-42" target="OjVrjrg3rD40EN0auv7F-17" edge="1">
          <mxGeometry width="50" height="50" relative="1" as="geometry">
            <mxPoint x="-67.5" y="552" as="sourcePoint" />
            <mxPoint x="-17.5" y="502" as="targetPoint" />
          </mxGeometry>
        </mxCell>
        <mxCell id="XE03PSI9TRx6ZJmSfXAc-2" value="差分隐私" style="edgeLabel;html=1;align=center;verticalAlign=middle;resizable=0;points=[];" vertex="1" connectable="0" parent="SZwGPWXOhueTDgwkdfKL-44">
          <mxGeometry x="-0.1904" relative="1" as="geometry">
            <mxPoint x="3" as="offset" />
          </mxGeometry>
        </mxCell>
        <mxCell id="SZwGPWXOhueTDgwkdfKL-70" value="计算模块" style="rounded=0;whiteSpace=wrap;html=1;" parent="1" vertex="1">
          <mxGeometry x="624.36" y="575" width="62.64" height="35" as="geometry" />
        </mxCell>
        <mxCell id="SZwGPWXOhueTDgwkdfKL-74" value="数据节点2-某银行机构" style="text;html=1;strokeColor=none;fillColor=none;align=center;verticalAlign=middle;whiteSpace=wrap;rounded=0;" parent="1" vertex="1">
          <mxGeometry x="607" y="539.5" width="123" height="20" as="geometry" />
        </mxCell>
        <mxCell id="SZwGPWXOhueTDgwkdfKL-45" value="数据节点1-某税务机构" style="text;html=1;strokeColor=none;fillColor=none;align=center;verticalAlign=middle;whiteSpace=wrap;rounded=0;" parent="1" vertex="1">
          <mxGeometry x="-42" y="539.5" width="122" height="20" as="geometry" />
        </mxCell>
        <mxCell id="OjVrjrg3rD40EN0auv7F-7" value="加密模块" style="rounded=0;whiteSpace=wrap;html=1;" parent="1" vertex="1">
          <mxGeometry x="624.36" y="662.5" width="62.64" height="33.5" as="geometry" />
        </mxCell>
        <mxCell id="OjVrjrg3rD40EN0auv7F-10" value="加密模块" style="rounded=0;whiteSpace=wrap;html=1;" parent="1" vertex="1">
          <mxGeometry x="344.38" y="664" width="65.25" height="35" as="geometry" />
        </mxCell>
        <mxCell id="OjVrjrg3rD40EN0auv7F-15" value="解密模块" style="rounded=0;whiteSpace=wrap;html=1;" parent="1" vertex="1">
          <mxGeometry x="344.38" y="585" width="63.25" height="35" as="geometry" />
        </mxCell>
        <mxCell id="OjVrjrg3rD40EN0auv7F-17" value="加密模块" style="rounded=0;whiteSpace=wrap;html=1;" parent="1" vertex="1">
          <mxGeometry x="74" y="664" width="57" height="35" as="geometry" />
        </mxCell>
        <mxCell id="OjVrjrg3rD40EN0auv7F-23" value="" style="endArrow=classic;html=1;entryX=0;entryY=0.5;entryDx=0;entryDy=0;exitX=1;exitY=0.5;exitDx=0;exitDy=0;" parent="1" source="OjVrjrg3rD40EN0auv7F-10" target="OjVrjrg3rD40EN0auv7F-7" edge="1">
          <mxGeometry width="50" height="50" relative="1" as="geometry">
            <mxPoint x="522.25" y="695" as="sourcePoint" />
            <mxPoint x="760" y="597.5" as="targetPoint" />
          </mxGeometry>
        </mxCell>
        <mxCell id="XE03PSI9TRx6ZJmSfXAc-7" value="2&#39;. 发送秘钥" style="edgeLabel;html=1;align=center;verticalAlign=middle;resizable=0;points=[];" vertex="1" connectable="0" parent="OjVrjrg3rD40EN0auv7F-23">
          <mxGeometry x="-0.0794" y="2" relative="1" as="geometry">
            <mxPoint as="offset" />
          </mxGeometry>
        </mxCell>
        <mxCell id="xvBowT36RqXCjo3gfy6g-17" value="" style="endArrow=classic;html=1;exitX=0.5;exitY=0;exitDx=0;exitDy=0;entryX=0.5;entryY=1;entryDx=0;entryDy=0;" parent="1" target="xvBowT36RqXCjo3gfy6g-31" edge="1">
          <mxGeometry width="50" height="50" relative="1" as="geometry">
            <mxPoint x="489.6199999999999" y="419" as="sourcePoint" />
            <mxPoint x="342.5697674418607" y="385.5" as="targetPoint" />
          </mxGeometry>
        </mxCell>
        <mxCell id="xvBowT36RqXCjo3gfy6g-18" value="明文" style="text;html=1;align=center;verticalAlign=middle;resizable=0;points=[];labelBackgroundColor=#ffffff;" parent="xvBowT36RqXCjo3gfy6g-17" vertex="1" connectable="0">
          <mxGeometry x="-0.0569" relative="1" as="geometry">
            <mxPoint as="offset" />
          </mxGeometry>
        </mxCell>
        <mxCell id="xvBowT36RqXCjo3gfy6g-30" value="" style="endArrow=classic;html=1;entryX=0.5;entryY=0;entryDx=0;entryDy=0;exitX=0.5;exitY=1;exitDx=0;exitDy=0;" parent="1" source="XE03PSI9TRx6ZJmSfXAc-25" target="SZwGPWXOhueTDgwkdfKL-1" edge="1">
          <mxGeometry width="50" height="50" relative="1" as="geometry">
            <mxPoint x="376.7777777777778" y="470" as="sourcePoint" />
            <mxPoint x="376.75" y="419" as="targetPoint" />
          </mxGeometry>
        </mxCell>
        <mxCell id="M_KhwPdWLZJoRcsW6HB1-16" value="1. 发起核验请求" style="edgeLabel;html=1;align=center;verticalAlign=middle;resizable=0;points=[];" parent="xvBowT36RqXCjo3gfy6g-30" vertex="1" connectable="0">
          <mxGeometry x="-0.4417" y="-1" relative="1" as="geometry">
            <mxPoint x="-45.6" y="10.01" as="offset" />
          </mxGeometry>
        </mxCell>
        <mxCell id="M_KhwPdWLZJoRcsW6HB1-1" value="" style="endArrow=classic;html=1;entryX=0.75;entryY=0;entryDx=0;entryDy=0;exitX=0.5;exitY=1;exitDx=0;exitDy=0;" parent="1" source="XE03PSI9TRx6ZJmSfXAc-25" target="SZwGPWXOhueTDgwkdfKL-1" edge="1">
          <mxGeometry width="50" height="50" relative="1" as="geometry">
            <mxPoint x="385.75" y="470" as="sourcePoint" />
            <mxPoint x="471" y="353" as="targetPoint" />
          </mxGeometry>
        </mxCell>
        <mxCell id="M_KhwPdWLZJoRcsW6HB1-15" value="6. 获取明文结果" style="edgeLabel;html=1;align=center;verticalAlign=middle;resizable=0;points=[];" parent="M_KhwPdWLZJoRcsW6HB1-1" vertex="1" connectable="0">
          <mxGeometry x="-0.2125" relative="1" as="geometry">
            <mxPoint x="47.28" y="2.8599999999999994" as="offset" />
          </mxGeometry>
        </mxCell>
        <mxCell id="XE03PSI9TRx6ZJmSfXAc-3" value="2. 发送公钥" style="endArrow=classic;html=1;exitX=0;exitY=0.5;exitDx=0;exitDy=0;entryX=1;entryY=0.5;entryDx=0;entryDy=0;" edge="1" parent="1" source="OjVrjrg3rD40EN0auv7F-10" target="OjVrjrg3rD40EN0auv7F-17">
          <mxGeometry width="50" height="50" relative="1" as="geometry">
            <mxPoint x="390" y="580" as="sourcePoint" />
            <mxPoint x="440" y="530" as="targetPoint" />
          </mxGeometry>
        </mxCell>
        <mxCell id="XE03PSI9TRx6ZJmSfXAc-4" value="" style="endArrow=classic;startArrow=classic;html=1;exitX=0.5;exitY=1;exitDx=0;exitDy=0;entryX=0.5;entryY=1;entryDx=0;entryDy=0;" edge="1" parent="1" source="OjVrjrg3rD40EN0auv7F-17" target="OjVrjrg3rD40EN0auv7F-7">
          <mxGeometry width="50" height="50" relative="1" as="geometry">
            <mxPoint x="390" y="580" as="sourcePoint" />
            <mxPoint x="440" y="530" as="targetPoint" />
            <Array as="points">
              <mxPoint x="380" y="810" />
            </Array>
          </mxGeometry>
        </mxCell>
        <mxCell id="XE03PSI9TRx6ZJmSfXAc-5" value="3. 加密并交互中间参数" style="edgeLabel;html=1;align=center;verticalAlign=middle;resizable=0;points=[];" vertex="1" connectable="0" parent="XE03PSI9TRx6ZJmSfXAc-4">
          <mxGeometry x="-0.0844" y="14" relative="1" as="geometry">
            <mxPoint x="-0.3600000000000012" y="13.53" as="offset" />
          </mxGeometry>
        </mxCell>
        <mxCell id="XE03PSI9TRx6ZJmSfXAc-6" value="4. 密文计算梯度" style="endArrow=classic;html=1;exitX=0.5;exitY=0;exitDx=0;exitDy=0;entryX=0.5;entryY=1;entryDx=0;entryDy=0;" edge="1" parent="1" source="OjVrjrg3rD40EN0auv7F-17" target="SZwGPWXOhueTDgwkdfKL-9">
          <mxGeometry width="50" height="50" relative="1" as="geometry">
            <mxPoint x="380" y="580" as="sourcePoint" />
            <mxPoint x="430" y="530" as="targetPoint" />
          </mxGeometry>
        </mxCell>
        <mxCell id="XE03PSI9TRx6ZJmSfXAc-8" value="" style="endArrow=classic;html=1;exitX=0.5;exitY=0;exitDx=0;exitDy=0;entryX=0.5;entryY=1;entryDx=0;entryDy=0;" edge="1" parent="1" source="OjVrjrg3rD40EN0auv7F-7" target="SZwGPWXOhueTDgwkdfKL-70">
          <mxGeometry width="50" height="50" relative="1" as="geometry">
            <mxPoint x="337" y="578" as="sourcePoint" />
            <mxPoint x="387" y="528" as="targetPoint" />
          </mxGeometry>
        </mxCell>
        <mxCell id="XE03PSI9TRx6ZJmSfXAc-9" value="4&#39;. 密文计算梯度和损失结果" style="edgeLabel;html=1;align=center;verticalAlign=middle;resizable=0;points=[];" vertex="1" connectable="0" parent="XE03PSI9TRx6ZJmSfXAc-8">
          <mxGeometry x="0.0075" relative="1" as="geometry">
            <mxPoint x="41.32" y="-0.75" as="offset" />
          </mxGeometry>
        </mxCell>
        <mxCell id="XE03PSI9TRx6ZJmSfXAc-12" value="差分隐私" style="endArrow=classic;html=1;exitX=0;exitY=0.5;exitDx=0;exitDy=0;entryX=1;entryY=0.5;entryDx=0;entryDy=0;" edge="1" parent="1" source="XE03PSI9TRx6ZJmSfXAc-20" target="OjVrjrg3rD40EN0auv7F-7">
          <mxGeometry width="50" height="50" relative="1" as="geometry">
            <mxPoint x="767" y="674.75" as="sourcePoint" />
            <mxPoint x="387" y="528" as="targetPoint" />
          </mxGeometry>
        </mxCell>
        <mxCell id="XE03PSI9TRx6ZJmSfXAc-14" value="" style="endArrow=classic;html=1;exitX=1;exitY=0.25;exitDx=0;exitDy=0;entryX=0;entryY=0.5;entryDx=0;entryDy=0;" edge="1" parent="1" source="OjVrjrg3rD40EN0auv7F-17" target="OjVrjrg3rD40EN0auv7F-15">
          <mxGeometry width="50" height="50" relative="1" as="geometry">
            <mxPoint x="390" y="580" as="sourcePoint" />
            <mxPoint x="440" y="530" as="targetPoint" />
          </mxGeometry>
        </mxCell>
        <mxCell id="XE03PSI9TRx6ZJmSfXAc-15" value="5. 返回密文梯度" style="edgeLabel;html=1;align=center;verticalAlign=middle;resizable=0;points=[];" vertex="1" connectable="0" parent="XE03PSI9TRx6ZJmSfXAc-14">
          <mxGeometry x="-0.135" relative="1" as="geometry">
            <mxPoint as="offset" />
          </mxGeometry>
        </mxCell>
        <mxCell id="XE03PSI9TRx6ZJmSfXAc-16" value="" style="endArrow=classic;html=1;exitX=0;exitY=0.25;exitDx=0;exitDy=0;entryX=1;entryY=0.5;entryDx=0;entryDy=0;" edge="1" parent="1" source="OjVrjrg3rD40EN0auv7F-7" target="OjVrjrg3rD40EN0auv7F-15">
          <mxGeometry width="50" height="50" relative="1" as="geometry">
            <mxPoint x="390" y="580" as="sourcePoint" />
            <mxPoint x="440" y="530" as="targetPoint" />
          </mxGeometry>
        </mxCell>
        <mxCell id="XE03PSI9TRx6ZJmSfXAc-17" value="5&#39;. 返回密文梯度和损失结果" style="edgeLabel;html=1;align=center;verticalAlign=middle;resizable=0;points=[];" vertex="1" connectable="0" parent="XE03PSI9TRx6ZJmSfXAc-16">
          <mxGeometry x="0.1423" y="1" relative="1" as="geometry">
            <mxPoint x="19.92" y="0.28" as="offset" />
          </mxGeometry>
        </mxCell>
        <mxCell id="XE03PSI9TRx6ZJmSfXAc-18" value="" style="endArrow=classic;html=1;exitX=0;exitY=0.25;exitDx=0;exitDy=0;entryX=1;entryY=0.5;entryDx=0;entryDy=0;" edge="1" parent="1" source="OjVrjrg3rD40EN0auv7F-15" target="SZwGPWXOhueTDgwkdfKL-9">
          <mxGeometry width="50" height="50" relative="1" as="geometry">
            <mxPoint x="390" y="580" as="sourcePoint" />
            <mxPoint x="440" y="530" as="targetPoint" />
          </mxGeometry>
        </mxCell>
        <mxCell id="XE03PSI9TRx6ZJmSfXAc-27" value="6. 发送解密后的梯度值和损失" style="edgeLabel;html=1;align=center;verticalAlign=middle;resizable=0;points=[];" vertex="1" connectable="0" parent="XE03PSI9TRx6ZJmSfXAc-18">
          <mxGeometry x="-0.0027" y="-1" relative="1" as="geometry">
            <mxPoint as="offset" />
          </mxGeometry>
        </mxCell>
        <mxCell id="XE03PSI9TRx6ZJmSfXAc-19" value="6&#39;. 发送解密后的梯度值和损失" style="endArrow=classic;html=1;exitX=1;exitY=0.25;exitDx=0;exitDy=0;entryX=0;entryY=0.5;entryDx=0;entryDy=0;" edge="1" parent="1">
          <mxGeometry x="0.0185" y="1" width="50" height="50" relative="1" as="geometry">
            <mxPoint x="409.6300000000001" y="593.75" as="sourcePoint" />
            <mxPoint x="626.3600000000001" y="592.5" as="targetPoint" />
            <mxPoint as="offset" />
          </mxGeometry>
        </mxCell>
        <mxCell id="XE03PSI9TRx6ZJmSfXAc-20" value="" style="shape=datastore;whiteSpace=wrap;html=1;" vertex="1" parent="1">
          <mxGeometry x="760" y="654.5" width="40" height="49.5" as="geometry" />
        </mxCell>
        <mxCell id="XE03PSI9TRx6ZJmSfXAc-25" value="业务系统" style="rounded=0;whiteSpace=wrap;html=1;dashed=1;" vertex="1" parent="1">
          <mxGeometry x="338.51" y="459" width="72.49" height="30" as="geometry" />
        </mxCell>
        <mxCell id="XE03PSI9TRx6ZJmSfXAc-26" value="某证券公司" style="text;html=1;strokeColor=none;fillColor=none;align=center;verticalAlign=middle;whiteSpace=wrap;rounded=0;" vertex="1" parent="1">
          <mxGeometry x="337.63" y="439" width="70" height="20" as="geometry" />
        </mxCell>
        <mxCell id="XE03PSI9TRx6ZJmSfXAc-28" value="某可信第三方" style="text;html=1;strokeColor=none;fillColor=none;align=center;verticalAlign=middle;whiteSpace=wrap;rounded=0;" vertex="1" parent="1">
          <mxGeometry x="240" y="540" width="81" height="20" as="geometry" />
        </mxCell>
        <mxCell id="XE03PSI9TRx6ZJmSfXAc-29" value="" style="rounded=0;whiteSpace=wrap;html=1;dashed=1;" vertex="1" parent="1">
          <mxGeometry x="-42" y="840.5" width="192" height="160" as="geometry" />
        </mxCell>
        <mxCell id="XE03PSI9TRx6ZJmSfXAc-30" value="数据节点3-某金融机构" style="text;html=1;strokeColor=none;fillColor=none;align=center;verticalAlign=middle;whiteSpace=wrap;rounded=0;" vertex="1" parent="1">
          <mxGeometry x="-41" y="820" width="122" height="20" as="geometry" />
        </mxCell>
        <mxCell id="XE03PSI9TRx6ZJmSfXAc-31" value="" style="rounded=0;whiteSpace=wrap;html=1;dashed=1;" vertex="1" parent="1">
          <mxGeometry x="610" y="850.75" width="192" height="160" as="geometry" />
        </mxCell>
        <mxCell id="XE03PSI9TRx6ZJmSfXAc-32" value="数据节点4-某政府机构" style="text;html=1;strokeColor=none;fillColor=none;align=center;verticalAlign=middle;whiteSpace=wrap;rounded=0;" vertex="1" parent="1">
          <mxGeometry x="611" y="830.25" width="122" height="20" as="geometry" />
        </mxCell>
        <mxCell id="XE03PSI9TRx6ZJmSfXAc-33" value="&lt;font style=&quot;font-size: 24px&quot;&gt;......&lt;/font&gt;" style="rounded=0;whiteSpace=wrap;html=1;dashed=1;strokeColor=none;fillColor=none;direction=west;rotation=90;" vertex="1" parent="1">
          <mxGeometry x="-47" y="1020" width="200" height="153.5" as="geometry" />
        </mxCell>
        <mxCell id="XE03PSI9TRx6ZJmSfXAc-34" value="&lt;font style=&quot;font-size: 24px&quot;&gt;......&lt;/font&gt;" style="rounded=0;whiteSpace=wrap;html=1;dashed=1;strokeColor=none;fillColor=none;direction=west;rotation=90;" vertex="1" parent="1">
          <mxGeometry x="606" y="1030" width="200" height="153.5" as="geometry" />
        </mxCell>
      </root>
    </mxGraphModel>
  </diagram>
</mxfile>
